UFC 119: Mir Vs Cro Cop [SatRiP-XviD-Mp3-ENG][TNTVillage.Scambioetico]





General
Complete name                    : C:\UFC.119.Mir.vs.Cro.Cop.DSR.XviD-XWT\Part1.avi
Format                           : AVI
Format/Info                      : Audio Video Interleave
File size                        : 781 MiB
Duration                         : 1h 33mn
Overall bit rate                 : 1 164 Kbps
Writing library                  : MPlayer

Video
Format                           : MPEG-4 Visual
Format profile                   : Streaming Video@L1
Format settings, BVOP            : Yes
Format settings, QPel            : No
Format settings, GMC             : No warppoints
Format settings, Matrix          : Default
Codec ID                         : XVID
Codec ID/Hint                    : XviD
Duration                         : 1h 33mn
Bit rate                         : 1 024 Kbps
Width                            : 640 pixels
Height                           : 368 pixels
Display aspect ratio             : 16/9
Frame rate                       : 25.000 fps
Resolution                       : 24 bits
Colorimetry                      : 4:2:0
Scan type                        : Progressive
Bits/(Pixel*Frame)               : 0.174
Stream size                      : 687 MiB (88%)
Writing library                  : XviD 1.1.2 (UTC 2006-11-01)

Audio
Format                           : MPEG Audio
Format version                   : Version 1
Format profile                   : Layer 3
Codec ID                         : 55
Codec ID/Hint                    : MP3
Duration                         : 1h 33mn
Bit rate mode                    : Constant
Bit rate                         : 128 Kbps
Channel(s)                       : 2 channels
Sampling rate                    : 44.1 KHz
Resolution                       : 16 bits
Stream size                      : 85.8 MiB (11%)
Alignment                        : Aligned on interleaves
Interleave, duration             : 26 ms (0.65 video frame)
Interleave, preload duration     : 809 ms

 
http://uptiki.com/images/ajoh1awitnjchfe3jvec.png

 
http://uptiki.com/images/cdbne938tyh8tf3vl23n.png

 
http://uptiki.com/images/7juut0ql5n26nnr87vq5.png

 
http://uptiki.com/images/y6amp9idht74bg1az54o.png

 
http://uptiki.com/images/ljowz3irw7t2t49lkr.png